%TF.GenerationSoftware,KiCad,Pcbnew,7.0.8*%
%TF.CreationDate,2023-11-19T04:52:14+05:30*%
%TF.ProjectId,NB679-DKA-BuckConverter,4e423637-392d-4444-9b41-2d4275636b43,rev?*%
%TF.SameCoordinates,Original*%
%TF.FileFunction,Copper,L4,Bot*%
%TF.FilePolarity,Positive*%
%FSLAX46Y46*%
G04 Gerber Fmt 4.6, Leading zero omitted, Abs format (unit mm)*
G04 Created by KiCad (PCBNEW 7.0.8) date 2023-11-19 04:52:14*
%MOMM*%
%LPD*%
G01*
G04 APERTURE LIST*
%TA.AperFunction,ComponentPad*%
%ADD10R,1.700000X1.700000*%
%TD*%
%TA.AperFunction,ViaPad*%
%ADD11C,0.800000*%
%TD*%
%TA.AperFunction,Conductor*%
%ADD12C,1.250000*%
%TD*%
%TA.AperFunction,Conductor*%
%ADD13C,1.000000*%
%TD*%
%TA.AperFunction,Conductor*%
%ADD14C,0.250000*%
%TD*%
G04 APERTURE END LIST*
D10*
%TO.P,Vin1,1,Pin_1*%
%TO.N,/Vin*%
X97900000Y-66100000D03*
%TD*%
%TO.P,GND1,1,Pin_1*%
%TO.N,GND*%
X97400000Y-81300000D03*
%TD*%
%TO.P,Vout1,1,Pin_1*%
%TO.N,/BST*%
X97100000Y-106300000D03*
%TD*%
%TO.P,GND2,1,Pin_1*%
%TO.N,GND*%
X97200000Y-89400000D03*
%TD*%
D11*
%TO.N,Net-(U1-BST)*%
X124850000Y-85070000D03*
X121600000Y-86500000D03*
%TO.N,/Vin*%
X108700000Y-72500000D03*
X102700000Y-72300000D03*
%TO.N,GND*%
X97400000Y-85200000D03*
%TO.N,Net-(U1-Vcc)*%
X122800000Y-81900000D03*
X115700000Y-88500000D03*
%TO.N,/BST*%
X120500000Y-102800000D03*
X120900000Y-89900000D03*
X97000000Y-100000000D03*
X120300000Y-107400000D03*
%TD*%
D12*
%TO.N,Net-(U1-BST)*%
X123350000Y-86500000D02*
X124740000Y-85110000D01*
X121600000Y-86500000D02*
X123350000Y-86500000D01*
D13*
%TO.N,/Vin*%
X97900000Y-66100000D02*
X97900000Y-71300000D01*
X98900000Y-72300000D02*
X108500000Y-72300000D01*
X108500000Y-72300000D02*
X108700000Y-72500000D01*
X97900000Y-71300000D02*
G75*
G03*
X98900000Y-72300000I1000000J0D01*
G01*
%TO.N,GND*%
X97400000Y-89200000D02*
X97200000Y-89400000D01*
X97400000Y-85200000D02*
X97400000Y-89200000D01*
X97400000Y-81300000D02*
X97400000Y-85200000D01*
%TO.N,Net-(U1-Vcc)*%
X115600000Y-88400000D02*
X115700000Y-88500000D01*
X122800000Y-81900000D02*
X117914214Y-81900000D01*
X117207107Y-82192893D02*
X115892893Y-83507107D01*
X115600000Y-84214214D02*
X115600000Y-88400000D01*
X115892866Y-83507080D02*
G75*
G03*
X115600000Y-84214214I707234J-707120D01*
G01*
X117914214Y-81900010D02*
G75*
G03*
X117207107Y-82192893I-14J-999990D01*
G01*
%TO.N,/BST*%
X106200000Y-107400000D02*
X120300000Y-107400000D01*
X120900000Y-89900000D02*
X120900000Y-102600000D01*
X105100000Y-106300000D02*
X106200000Y-107400000D01*
X97100000Y-100100000D02*
X97000000Y-100000000D01*
X97100000Y-106300000D02*
X105100000Y-106300000D01*
X97100000Y-106300000D02*
X97100000Y-100100000D01*
D14*
X97100000Y-106300000D02*
X97200000Y-106400000D01*
D13*
X120900000Y-102600000D02*
X120500000Y-103000000D01*
D14*
X97100000Y-106300000D02*
X97000000Y-106200000D01*
%TD*%
M02*
