<svg version="1.1" xmlns="http://www.w3.org/2000/svg" xmlns:xlink="http://www.w3.org/1999/xlink" stroke-linecap="round" stroke-linejoin="round" stroke-width="0" fill-rule="evenodd" width="41.179mm" height="65.8995mm" viewBox="92910.5 -119900 41179 65899.5" id="bvFmE4j3HhTiCEyAQLDy"><defs><rect x="-850" y="-850" width="1700" height="1700" id="bvFmE4j3HhTiCEyAQLDy_pad-10"/><circle cx="0" cy="0" r="400" id="bvFmE4j3HhTiCEyAQLDy_pad-11"/></defs><g transform="translate(0,-173900.5) scale(1,-1)" fill="currentColor" stroke="currentColor"><use xlink:href="#bvFmE4j3HhTiCEyAQLDy_pad-10" x="97900" y="-66100"/><use xlink:href="#bvFmE4j3HhTiCEyAQLDy_pad-10" x="97400" y="-81300"/><use xlink:href="#bvFmE4j3HhTiCEyAQLDy_pad-10" x="97100" y="-106300"/><use xlink:href="#bvFmE4j3HhTiCEyAQLDy_pad-10" x="97200" y="-89400"/><use xlink:href="#bvFmE4j3HhTiCEyAQLDy_pad-11" x="124850" y="-85070"/><use xlink:href="#bvFmE4j3HhTiCEyAQLDy_pad-11" x="121600" y="-86500"/><use xlink:href="#bvFmE4j3HhTiCEyAQLDy_pad-11" x="127800" y="-89000"/><use xlink:href="#bvFmE4j3HhTiCEyAQLDy_pad-11" x="121575.63" y="-87499.205"/><use xlink:href="#bvFmE4j3HhTiCEyAQLDy_pad-11" x="108700" y="-72500"/><use xlink:href="#bvFmE4j3HhTiCEyAQLDy_pad-11" x="108600" y="-93900"/><use xlink:href="#bvFmE4j3HhTiCEyAQLDy_pad-11" x="120800" y="-83100"/><use xlink:href="#bvFmE4j3HhTiCEyAQLDy_pad-11" x="108600" y="-87000"/><use xlink:href="#bvFmE4j3HhTiCEyAQLDy_pad-11" x="109000" y="-90400"/><use xlink:href="#bvFmE4j3HhTiCEyAQLDy_pad-11" x="112200" y="-87000"/><use xlink:href="#bvFmE4j3HhTiCEyAQLDy_pad-11" x="108200" y="-112700"/><use xlink:href="#bvFmE4j3HhTiCEyAQLDy_pad-11" x="108300" y="-102400"/><use xlink:href="#bvFmE4j3HhTiCEyAQLDy_pad-11" x="97400" y="-85200"/><use xlink:href="#bvFmE4j3HhTiCEyAQLDy_pad-11" x="122800" y="-81900"/><use xlink:href="#bvFmE4j3HhTiCEyAQLDy_pad-11" x="115700" y="-88500"/><use xlink:href="#bvFmE4j3HhTiCEyAQLDy_pad-11" x="120500" y="-102800"/><use xlink:href="#bvFmE4j3HhTiCEyAQLDy_pad-11" x="120800" y="-112900"/><use xlink:href="#bvFmE4j3HhTiCEyAQLDy_pad-11" x="120900" y="-89900"/><use xlink:href="#bvFmE4j3HhTiCEyAQLDy_pad-11" x="127800" y="-98700"/><path d="M 134032.539 -54020.185 134078.294 -54072.989 134089.5 -54124.5 134089.5 -119776 134069.815 -119843.039 134017.011 -119888.794 133965.5 -119900 93151.362 -119900 93084.323 -119880.315 93063.681 -119863.681 92946.819 -119746.819 92913.334 -119685.496 92910.5 -119659.138 92910.5 -116431.187 95649.5 -116431.187 95669.794 -116565.823 95688.604 -116690.615 95688.605 -116690.617 95688.606 -116690.623 95765.938 -116941.326 95879.767 -117177.696 95879.768 -117177.697 95879.77 -117177.7 95879.772 -117177.704 95929.326 -117250.386 96027.567 -117394.479 96206.014 -117586.801 96206.018 -117586.804 96206.019 -117586.805 96411.143 -117750.386 96638.357 -117881.568 96882.584 -117977.42 97138.37 -118035.802 97138.376 -118035.802 97138.379 -118035.803 97334.5 -118050.5 97334.506 -118050.5 97465.5 -118050.5 97661.62 -118035.803 97661.622 -118035.802 97661.63 -118035.802 97917.416 -117977.42 98161.643 -117881.568 98388.857 -117750.386 98593.981 -117586.805 98772.433 -117394.479 98920.228 -117177.704 99034.063 -116941.323 99111.396 -116690.615 99150.5 -116431.182 99150.5 -116168.818 99114.682 -115931.187 128749.5 -115931.187 128769.794 -116065.823 128788.604 -116190.615 128862.81 -116431.187 128865.938 -116441.326 128979.767 -116677.696 128979.768 -116677.697 128979.77 -116677.7 128979.772 -116677.704 129127.567 -116894.479 129306.014 -117086.801 129306.018 -117086.804 129306.019 -117086.805 129511.143 -117250.386 129738.357 -117381.568 129982.584 -117477.42 130238.37 -117535.802 130238.376 -117535.802 130238.379 -117535.803 130434.5 -117550.5 130434.506 -117550.5 130565.5 -117550.5 130761.62 -117535.803 130761.622 -117535.802 130761.63 -117535.802 131017.416 -117477.42 131261.643 -117381.568 131488.857 -117250.386 131693.981 -117086.805 131872.433 -116894.479 132020.228 -116677.704 132134.063 -116441.323 132211.396 -116190.615 132250.5 -115931.182 132250.5 -115668.818 132211.396 -115409.385 132134.063 -115158.677 132064.003 -115013.195 132020.232 -114922.303 132020.231 -114922.302 132020.23 -114922.301 132020.228 -114922.296 131872.433 -114705.521 131862.441 -114694.753 131693.985 -114513.198 131654.533 -114481.736 131488.857 -114349.614 131261.643 -114218.432 131017.416 -114122.58 131017.411 -114122.578 131017.402 -114122.576 130799.818 -114072.914 130761.63 -114064.198 130761.629 -114064.197 130761.625 -114064.197 130761.62 -114064.196 130565.5 -114049.5 130565.494 -114049.5 130434.506 -114049.5 130434.5 -114049.5 130238.379 -114064.196 130238.374 -114064.197 129982.597 -114122.576 129982.578 -114122.582 129738.356 -114218.432 129511.143 -114349.614 129306.014 -114513.198 129127.567 -114705.52 128979.768 -114922.302 128979.767 -114922.303 128865.938 -115158.673 128788.606 -115409.376 128788.605 -115409.381 128788.604 -115409.385 128786.657 -115422.303 128749.5 -115668.812 128749.5 -115931.187 99114.682 -115931.187 99111.396 -115909.385 99034.063 -115658.677 99022.121 -115633.88 98920.232 -115422.303 98920.231 -115422.302 98920.23 -115422.301 98920.228 -115422.296 98772.433 -115205.521 98728.965 -115158.673 98593.985 -115013.198 98480.006 -114922.303 98388.857 -114849.614 98161.643 -114718.432 97917.416 -114622.58 97917.411 -114622.578 97917.402 -114622.576 97699.818 -114572.914 97661.63 -114564.198 97661.629 -114564.197 97661.625 -114564.197 97661.62 -114564.196 97465.5 -114549.5 97465.494 -114549.5 97334.506 -114549.5 97334.5 -114549.5 97138.379 -114564.196 97138.374 -114564.197 96882.597 -114622.576 96882.578 -114622.582 96638.356 -114718.432 96411.143 -114849.614 96206.014 -115013.198 96027.567 -115205.52 95879.768 -115422.302 95879.767 -115422.303 95765.938 -115658.673 95688.606 -115909.376 95688.605 -115909.381 95688.604 -115909.385 95685.319 -115931.182 95649.5 -116168.812 95649.5 -116431.187 92910.5 -116431.187 92910.5 -112900 119894.54 -112900 119914.326 -113088.256 119914.327 -113088.259 119972.818 -113268.277 119972.821 -113268.284 120067.467 -113432.216 120194.129 -113572.888 120347.265 -113684.148 120347.27 -113684.151 120520.192 -113761.142 120520.197 -113761.144 120705.354 -113800.5 120705.355 -113800.5 120894.644 -113800.5 120894.646 -113800.5 121079.803 -113761.144 121252.73 -113684.151 121405.871 -113572.888 121532.533 -113432.216 121627.179 -113268.284 121685.674 -113088.256 121705.46 -112900 121685.674 -112711.744 121627.179 -112531.716 121532.533 -112367.784 121405.871 -112227.112 121405.87 -112227.111 121252.734 -112115.851 121252.729 -112115.848 121079.807 -112038.857 121079.802 -112038.855 120934.001 -112007.865 120894.646 -111999.5 120705.354 -111999.5 120672.897 -112006.398 120520.197 -112038.855 120520.192 -112038.857 120347.27 -112115.848 120347.265 -112115.851 120194.129 -112227.111 120067.466 -112367.785 119972.821 -112531.715 119972.818 -112531.722 119914.327 -112711.74 119914.326 -112711.744 119894.54 -112900 92910.5 -112900 92910.5 -107197.87 95749.5 -107197.87 95749.501 -107197.876 95755.908 -107257.483 95806.202 -107392.328 95806.206 -107392.335 95892.452 -107507.544 95892.455 -107507.547 96007.664 -107593.793 96007.671 -107593.797 96142.517 -107644.091 96142.516 -107644.091 96149.444 -107644.835 96202.127 -107650.5 97997.872 -107650.499 98057.483 -107644.091 98192.331 -107593.796 98307.546 -107507.546 98393.796 -107392.331 98444.091 -107257.483 98450.5 -107197.873 98450.499 -105402.128 98444.091 -105342.517 98393.796 -105207.669 98393.795 -105207.668 98393.793 -105207.664 98307.547 -105092.455 98307.544 -105092.452 98192.335 -105006.206 98192.328 -105006.202 98057.482 -104955.908 98057.483 -104955.908 97997.883 -104949.501 97997.881 -104949.5 97997.873 -104949.5 97997.864 -104949.5 96202.129 -104949.5 96202.123 -104949.501 96142.516 -104955.908 96007.671 -105006.202 96007.664 -105006.206 95892.455 -105092.452 95892.452 -105092.455 95806.206 -105207.664 95806.202 -105207.671 95755.908 -105342.517 95749.501 -105402.116 95749.501 -105402.123 95749.5 -105402.135 95749.5 -107197.87 92910.5 -107197.87 92910.5 -102800 119594.54 -102800 119614.326 -102988.256 119614.327 -102988.259 119672.818 -103168.277 119672.821 -103168.284 119767.467 -103332.216 119894.129 -103472.888 120047.265 -103584.148 120047.27 -103584.151 120220.192 -103661.142 120220.197 -103661.144 120405.354 -103700.5 120405.355 -103700.5 120594.644 -103700.5 120594.646 -103700.5 120779.803 -103661.144 120952.73 -103584.151 121105.871 -103472.888 121232.533 -103332.216 121327.179 -103168.284 121385.674 -102988.256 121405.46 -102800 121385.674 -102611.744 121327.179 -102431.716 121232.533 -102267.784 121105.871 -102127.112 121105.87 -102127.111 120952.734 -102015.851 120952.729 -102015.848 120779.807 -101938.857 120779.802 -101938.855 120634.001 -101907.865 120594.646 -101899.5 120405.354 -101899.5 120372.897 -101906.398 120220.197 -101938.855 120220.192 -101938.857 120047.27 -102015.848 120047.265 -102015.851 119894.129 -102127.111 119767.466 -102267.785 119672.821 -102431.715 119672.818 -102431.722 119614.327 -102611.74 119614.326 -102611.744 119594.54 -102800 92910.5 -102800 92910.5 -98700 126894.54 -98700 126914.326 -98888.256 126914.327 -98888.259 126972.818 -99068.277 126972.821 -99068.284 127067.467 -99232.216 127194.129 -99372.888 127347.265 -99484.148 127347.27 -99484.151 127520.192 -99561.142 127520.197 -99561.144 127705.354 -99600.5 127705.355 -99600.5 127894.644 -99600.5 127894.646 -99600.5 128079.803 -99561.144 128252.73 -99484.151 128405.871 -99372.888 128532.533 -99232.216 128627.179 -99068.284 128685.674 -98888.256 128705.46 -98700 128685.674 -98511.744 128627.179 -98331.716 128532.533 -98167.784 128405.871 -98027.112 128405.87 -98027.111 128252.734 -97915.851 128252.729 -97915.848 128079.807 -97838.857 128079.802 -97838.855 127934.001 -97807.865 127894.646 -97799.5 127705.354 -97799.5 127672.897 -97806.398 127520.197 -97838.855 127520.192 -97838.857 127347.27 -97915.848 127347.265 -97915.851 127194.129 -98027.111 127067.466 -98167.785 126972.821 -98331.715 126972.818 -98331.722 126914.327 -98511.74 126914.326 -98511.744 126894.54 -98700 92910.5 -98700 92910.5 -90297.844 95850 -90297.844 95856.401 -90357.372 95856.403 -90357.379 95906.645 -90492.086 95906.649 -90492.093 95992.809 -90607.187 95992.812 -90607.19 96107.906 -90693.35 96107.913 -90693.354 96242.62 -90743.596 96242.627 -90743.598 96302.155 -90749.999 96302.172 -90750 96950 -90750 96950 -89835.501 97057.685 -89884.68 97164.237 -89900 97235.763 -89900 97342.315 -89884.68 97450 -89835.501 97450 -90750 98097.828 -90750 98097.844 -90749.999 98157.372 -90743.598 98157.379 -90743.596 98292.086 -90693.354 98292.093 -90693.35 98407.187 -90607.19 98407.19 -90607.187 98493.35 -90492.093 98493.354 -90492.086 98543.596 -90357.379 98543.598 -90357.372 98549.999 -90297.844 98550 -90297.827 98550 -89900 119994.54 -89900 120014.326 -90088.256 120014.327 -90088.259 120072.818 -90268.277 120072.821 -90268.284 120167.467 -90432.216 120221.381 -90492.093 120294.129 -90572.888 120447.265 -90684.148 120447.27 -90684.151 120620.192 -90761.142 120620.197 -90761.144 120805.354 -90800.5 120805.355 -90800.5 120994.644 -90800.5 120994.646 -90800.5 121179.803 -90761.144 121352.73 -90684.151 121505.871 -90572.888 121632.533 -90432.216 121727.179 -90268.284 121785.674 -90088.256 121805.46 -89900 121785.674 -89711.744 121731.112 -89543.823 121727.181 -89531.722 121727.18 -89531.721 121727.179 -89531.716 121632.533 -89367.784 121505.871 -89227.112 121505.87 -89227.111 121352.734 -89115.851 121352.729 -89115.848 121179.807 -89038.857 121179.802 -89038.855 121034.001 -89007.865 120996.998 -89000 126894.54 -89000 126914.326 -89188.256 126914.327 -89188.259 126972.818 -89368.277 126972.821 -89368.284 127067.467 -89532.216 127194.129 -89672.888 127347.265 -89784.148 127347.27 -89784.151 127520.192 -89861.142 127520.197 -89861.144 127705.354 -89900.5 127705.355 -89900.5 127894.644 -89900.5 127894.646 -89900.5 128079.803 -89861.144 128252.73 -89784.151 128405.871 -89672.888 128532.533 -89532.216 128627.179 -89368.284 128685.674 -89188.256 128705.46 -89000 128685.674 -88811.744 128627.179 -88631.716 128532.533 -88467.784 128405.871 -88327.112 128384.719 -88311.744 128252.734 -88215.851 128252.729 -88215.848 128079.807 -88138.857 128079.802 -88138.855 127928.261 -88106.645 127894.646 -88099.5 127705.354 -88099.5 127672.897 -88106.398 127520.197 -88138.855 127520.192 -88138.857 127347.27 -88215.848 127347.265 -88215.851 127194.129 -88327.111 127067.466 -88467.785 126972.821 -88631.715 126972.818 -88631.722 126914.327 -88811.74 126914.326 -88811.744 126894.54 -89000 120996.998 -89000 120994.646 -88999.5 120805.354 -88999.5 120772.897 -89006.398 120620.197 -89038.855 120620.192 -89038.857 120447.27 -89115.848 120447.265 -89115.851 120294.129 -89227.111 120167.466 -89367.785 120072.821 -89531.715 120072.818 -89531.722 120026.951 -89672.888 120014.326 -89711.744 119994.54 -89900 98550 -89900 98550 -89650 97633.686 -89650 97659.493 -89609.844 97700 -89471.889 97700 -89328.111 97659.493 -89190.156 97633.686 -89150 98550 -89150 98550 -88502.172 98549.999 -88502.155 98549.767 -88500 114794.54 -88500 114814.326 -88688.256 114814.327 -88688.259 114872.818 -88868.277 114872.821 -88868.284 114967.467 -89032.216 115094.129 -89172.888 115247.265 -89284.148 115247.27 -89284.151 115420.192 -89361.142 115420.197 -89361.144 115605.354 -89400.5 115605.355 -89400.5 115794.644 -89400.5 115794.646 -89400.5 115979.803 -89361.144 116152.73 -89284.151 116305.871 -89172.888 116432.533 -89032.216 116527.179 -88868.284 116585.674 -88688.256 116605.46 -88500 116585.674 -88311.744 116527.179 -88131.716 116432.533 -87967.784 116305.871 -87827.112 116305.87 -87827.111 116152.734 -87715.851 116152.729 -87715.848 115979.807 -87638.857 115979.802 -87638.855 115834.001 -87607.865 115794.646 -87599.5 115605.354 -87599.5 115572.897 -87606.398 115420.197 -87638.855 115420.192 -87638.857 115247.27 -87715.848 115247.265 -87715.851 115094.129 -87827.111 114967.466 -87967.785 114872.821 -88131.715 114872.818 -88131.722 114814.327 -88311.74 114814.326 -88311.744 114794.54 -88500 98549.767 -88500 98543.598 -88442.627 98543.596 -88442.62 98493.354 -88307.913 98493.35 -88307.906 98407.19 -88192.812 98407.187 -88192.809 98292.093 -88106.649 98292.086 -88106.645 98157.379 -88056.403 98157.372 -88056.401 98097.844 -88050 97450 -88050 97450 -88964.498 97342.315 -88915.32 97235.763 -88900 97164.237 -88900 97057.685 -88915.32 96950 -88964.498 96950 -88050 96302.155 -88050 96242.627 -88056.401 96242.62 -88056.403 96107.913 -88106.645 96107.906 -88106.649 95992.812 -88192.809 95992.809 -88192.812 95906.649 -88307.906 95906.645 -88307.913 95856.403 -88442.62 95856.401 -88442.627 95850 -88502.155 95850 -89150 96766.314 -89150 96740.507 -89190.156 96700 -89328.111 96700 -89471.889 96740.507 -89609.844 96766.314 -89650 95850 -89650 95850 -90297.844 92910.5 -90297.844 92910.5 -87499.205 120670.17 -87499.205 120689.956 -87687.461 120689.957 -87687.464 120748.448 -87867.482 120748.451 -87867.489 120843.097 -88031.421 120933.409 -88131.722 120969.759 -88172.093 121122.895 -88283.353 121122.9 -88283.356 121295.822 -88360.347 121295.827 -88360.349 121480.984 -88399.705 121480.985 -88399.705 121670.274 -88399.705 121670.276 -88399.705 121855.433 -88360.349 122028.36 -88283.356 122181.501 -88172.093 122308.163 -88031.421 122402.809 -87867.489 122461.304 -87687.461 122481.09 -87499.205 122461.304 -87310.949 122402.809 -87130.921 122374.971 -87082.704 122358.499 -87014.807 122374.97 -86958.711 122427.179 -86868.284 122485.674 -86688.256 122505.46 -86500 122485.674 -86311.744 122427.179 -86131.716 122332.533 -85967.784 122205.871 -85827.112 122205.87 -85827.111 122052.734 -85715.851 122052.729 -85715.848 121879.807 -85638.857 121879.802 -85638.855 121734.001 -85607.865 121694.646 -85599.5 121505.354 -85599.5 121472.897 -85606.398 121320.197 -85638.855 121320.192 -85638.857 121147.27 -85715.848 121147.265 -85715.851 120994.129 -85827.111 120867.466 -85967.785 120772.821 -86131.715 120772.818 -86131.722 120714.327 -86311.74 120714.326 -86311.744 120694.54 -86500 120714.326 -86688.256 120714.327 -86688.259 120772.821 -86868.285 120800.656 -86916.497 120817.129 -86984.397 120800.656 -87040.496 120748.452 -87130.916 120748.451 -87130.918 120689.957 -87310.945 120689.956 -87310.949 120670.17 -87499.205 92910.5 -87499.205 92910.5 -85070 123944.54 -85070 123964.326 -85258.256 123964.327 -85258.259 124022.818 -85438.277 124022.821 -85438.284 124117.467 -85602.216 124150.458 -85638.856 124244.129 -85742.888 124397.265 -85854.148 124397.27 -85854.151 124570.192 -85931.142 124570.197 -85931.144 124755.354 -85970.5 124755.355 -85970.5 124944.644 -85970.5 124944.646 -85970.5 125129.803 -85931.144 125302.73 -85854.151 125455.871 -85742.888 125582.533 -85602.216 125677.179 -85438.284 125735.674 -85258.256 125755.46 -85070 125735.674 -84881.744 125677.179 -84701.716 125582.533 -84537.784 125455.871 -84397.112 125455.87 -84397.111 125302.734 -84285.851 125302.729 -84285.848 125129.807 -84208.857 125129.802 -84208.855 124984.001 -84177.865 124944.646 -84169.5 124755.354 -84169.5 124722.897 -84176.398 124570.197 -84208.855 124570.192 -84208.857 124397.27 -84285.848 124397.265 -84285.851 124244.129 -84397.111 124117.466 -84537.785 124022.821 -84701.715 124022.818 -84701.722 123964.327 -84881.74 123964.326 -84881.744 123944.54 -85070 92910.5 -85070 92910.5 -82197.844 96050 -82197.844 96056.401 -82257.372 96056.403 -82257.379 96106.645 -82392.086 96106.649 -82392.093 96192.809 -82507.187 96192.812 -82507.19 96307.906 -82593.35 96307.913 -82593.354 96442.62 -82643.596 96442.627 -82643.598 96502.155 -82649.999 96502.172 -82650 97150 -82650 97150 -81735.501 97257.685 -81784.68 97364.237 -81800 97435.763 -81800 97542.315 -81784.68 97650 -81735.501 97650 -82650 98297.828 -82650 98297.844 -82649.999 98357.372 -82643.598 98357.379 -82643.596 98492.086 -82593.354 98492.093 -82593.35 98607.187 -82507.19 98607.19 -82507.187 98693.35 -82392.093 98693.354 -82392.086 98743.596 -82257.379 98743.598 -82257.372 98749.999 -82197.844 98750 -82197.827 98750 -81900 121894.54 -81900 121914.326 -82088.256 121914.327 -82088.259 121972.818 -82268.277 121972.821 -82268.284 122067.467 -82432.216 122134.974 -82507.19 122194.129 -82572.888 122347.265 -82684.148 122347.27 -82684.151 122520.192 -82761.142 122520.197 -82761.144 122705.354 -82800.5 122705.355 -82800.5 122894.644 -82800.5 122894.646 -82800.5 123079.803 -82761.144 123252.73 -82684.151 123405.871 -82572.888 123532.533 -82432.216 123627.179 -82268.284 123685.674 -82088.256 123705.46 -81900 123685.674 -81711.744 123627.179 -81531.716 123532.533 -81367.784 123405.871 -81227.112 123405.87 -81227.111 123252.734 -81115.851 123252.729 -81115.848 123079.807 -81038.857 123079.802 -81038.855 122934.001 -81007.865 122894.646 -80999.5 122705.354 -80999.5 122672.897 -81006.398 122520.197 -81038.855 122520.192 -81038.857 122347.27 -81115.848 122347.265 -81115.851 122194.129 -81227.111 122067.466 -81367.785 121972.821 -81531.715 121972.818 -81531.722 121914.327 -81711.74 121914.326 -81711.744 121894.54 -81900 98750 -81900 98750 -81550 97833.686 -81550 97859.493 -81509.844 97900 -81371.889 97900 -81228.111 97859.493 -81090.156 97833.686 -81050 98750 -81050 98750 -80402.172 98749.999 -80402.155 98743.598 -80342.627 98743.596 -80342.62 98693.354 -80207.913 98693.35 -80207.906 98607.19 -80092.812 98607.187 -80092.809 98492.093 -80006.649 98492.086 -80006.645 98357.379 -79956.403 98357.372 -79956.401 98297.844 -79950 97650 -79950 97650 -80864.498 97542.315 -80815.32 97435.763 -80800 97364.237 -80800 97257.685 -80815.32 97150 -80864.498 97150 -79950 96502.155 -79950 96442.627 -79956.401 96442.62 -79956.403 96307.913 -80006.645 96307.906 -80006.649 96192.812 -80092.809 96192.809 -80092.812 96106.649 -80207.906 96106.645 -80207.913 96056.403 -80342.62 96056.401 -80342.627 96050 -80402.155 96050 -81050 96966.314 -81050 96940.507 -81090.156 96900 -81228.111 96900 -81371.889 96940.507 -81509.844 96966.314 -81550 96050 -81550 96050 -82197.844 92910.5 -82197.844 92910.5 -72500 107794.54 -72500 107814.326 -72688.256 107814.327 -72688.259 107872.818 -72868.277 107872.821 -72868.284 107967.467 -73032.216 108094.129 -73172.888 108247.265 -73284.148 108247.27 -73284.151 108420.192 -73361.142 108420.197 -73361.144 108605.354 -73400.5 108605.355 -73400.5 108794.644 -73400.5 108794.646 -73400.5 108979.803 -73361.144 109152.73 -73284.151 109305.871 -73172.888 109432.533 -73032.216 109527.179 -72868.284 109585.674 -72688.256 109605.46 -72500 109585.674 -72311.744 109527.179 -72131.716 109432.533 -71967.784 109305.871 -71827.112 109305.87 -71827.111 109152.734 -71715.851 109152.729 -71715.848 108979.807 -71638.857 108979.802 -71638.855 108834.001 -71607.865 108794.646 -71599.5 108605.354 -71599.5 108572.897 -71606.398 108420.197 -71638.855 108420.192 -71638.857 108247.27 -71715.848 108247.265 -71715.851 108094.129 -71827.111 107967.466 -71967.785 107872.821 -72131.715 107872.818 -72131.722 107814.327 -72311.74 107814.326 -72311.744 107794.54 -72500 92910.5 -72500 92910.5 -66997.87 96549.5 -66997.87 96549.501 -66997.876 96555.908 -67057.483 96606.202 -67192.328 96606.206 -67192.335 96692.452 -67307.544 96692.455 -67307.547 96807.664 -67393.793 96807.671 -67393.797 96942.517 -67444.091 96942.516 -67444.091 96949.444 -67444.835 97002.127 -67450.5 98797.872 -67450.499 98857.483 -67444.091 98992.331 -67393.796 99107.546 -67307.546 99193.796 -67192.331 99244.091 -67057.483 99250.5 -66997.873 99250.499 -65202.128 99244.091 -65142.517 99193.796 -65007.669 99193.795 -65007.668 99193.793 -65007.664 99107.547 -64892.455 99107.544 -64892.452 98992.335 -64806.206 98992.328 -64806.202 98857.482 -64755.908 98857.483 -64755.908 98797.883 -64749.501 98797.881 -64749.5 98797.873 -64749.5 98797.864 -64749.5 97002.129 -64749.5 97002.123 -64749.501 96942.516 -64755.908 96807.671 -64806.202 96807.664 -64806.206 96692.455 -64892.452 96692.452 -64892.455 96606.206 -65007.664 96606.202 -65007.671 96555.908 -65142.517 96549.501 -65202.116 96549.501 -65202.123 96549.5 -65202.135 96549.5 -66997.87 92910.5 -66997.87 92910.5 -58831.187 95649.5 -58831.187 95669.794 -58965.823 95688.604 -59090.615 95688.605 -59090.617 95688.606 -59090.623 95765.938 -59341.326 95879.767 -59577.696 95879.768 -59577.697 95879.77 -59577.7 95879.772 -59577.704 96027.567 -59794.479 96206.014 -59986.801 96206.018 -59986.804 96206.019 -59986.805 96411.143 -60150.386 96638.357 -60281.568 96882.584 -60377.42 97138.37 -60435.802 97138.376 -60435.802 97138.379 -60435.803 97334.5 -60450.5 97334.506 -60450.5 97465.5 -60450.5 97661.62 -60435.803 97661.622 -60435.802 97661.63 -60435.802 97917.416 -60377.42 98161.643 -60281.568 98388.857 -60150.386 98593.981 -59986.805 98772.433 -59794.479 98920.228 -59577.704 99034.063 -59341.323 99111.396 -59090.615 99150.499 -58831.187 128749.5 -58831.187 128769.794 -58965.823 128788.604 -59090.615 128788.605 -59090.617 128788.606 -59090.623 128865.938 -59341.326 128979.767 -59577.696 128979.768 -59577.697 128979.77 -59577.7 128979.772 -59577.704 129127.567 -59794.479 129306.014 -59986.801 129306.018 -59986.804 129306.019 -59986.805 129511.143 -60150.386 129738.357 -60281.568 129982.584 -60377.42 130238.37 -60435.802 130238.376 -60435.802 130238.379 -60435.803 130434.5 -60450.5 130434.506 -60450.5 130565.5 -60450.5 130761.62 -60435.803 130761.622 -60435.802 130761.63 -60435.802 131017.416 -60377.42 131261.643 -60281.568 131488.857 -60150.386 131693.981 -59986.805 131872.433 -59794.479 132020.228 -59577.704 132134.063 -59341.323 132211.396 -59090.615 132250.5 -58831.182 132250.5 -58568.818 132211.396 -58309.385 132134.063 -58058.677 132122.121 -58033.88 132020.232 -57822.303 132020.231 -57822.302 132020.23 -57822.301 132020.228 -57822.296 131872.433 -57605.521 131862.441 -57594.753 131693.985 -57413.198 131654.533 -57381.736 131488.857 -57249.614 131261.643 -57118.432 131017.416 -57022.58 131017.411 -57022.578 131017.402 -57022.576 130799.818 -56972.914 130761.63 -56964.198 130761.629 -56964.197 130761.625 -56964.197 130761.62 -56964.196 130565.5 -56949.5 130565.494 -56949.5 130434.506 -56949.5 130434.5 -56949.5 130238.379 -56964.196 130238.374 -56964.197 129982.597 -57022.576 129982.578 -57022.582 129738.356 -57118.432 129511.143 -57249.614 129306.014 -57413.198 129127.567 -57605.52 128979.768 -57822.302 128979.767 -57822.303 128865.938 -58058.673 128788.606 -58309.376 128788.605 -58309.381 128788.604 -58309.385 128773.853 -58407.247 128749.5 -58568.812 128749.5 -58831.187 99150.499 -58831.187 99150.5 -58831.182 99150.5 -58568.818 99111.396 -58309.385 99034.063 -58058.677 99022.121 -58033.88 98920.232 -57822.303 98920.231 -57822.302 98920.23 -57822.301 98920.228 -57822.296 98772.433 -57605.521 98762.441 -57594.753 98593.985 -57413.198 98554.533 -57381.736 98388.857 -57249.614 98161.643 -57118.432 97917.416 -57022.58 97917.411 -57022.578 97917.402 -57022.576 97699.818 -56972.914 97661.63 -56964.198 97661.629 -56964.197 97661.625 -56964.197 97661.62 -56964.196 97465.5 -56949.5 97465.494 -56949.5 97334.506 -56949.5 97334.5 -56949.5 97138.379 -56964.196 97138.374 -56964.197 96882.597 -57022.576 96882.578 -57022.582 96638.356 -57118.432 96411.143 -57249.614 96206.014 -57413.198 96027.567 -57605.52 95879.768 -57822.302 95879.767 -57822.303 95765.938 -58058.673 95688.606 -58309.376 95688.605 -58309.381 95688.604 -58309.385 95673.853 -58407.247 95649.5 -58568.812 95649.5 -58831.187 92910.5 -58831.187 92910.5 -54124.5 92930.185 -54057.461 92982.989 -54011.706 93034.5 -54000.5 133965.5 -54000.5 134032.539 -54020.185"/></g></svg>