<svg version="1.1" xmlns="http://www.w3.org/2000/svg" xmlns:xlink="http://www.w3.org/1999/xlink" stroke-linecap="round" stroke-linejoin="round" stroke-width="0" fill-rule="evenodd" width="36.1mm" height="60.6mm" viewBox="95900 -117800 36100 60600" id="mQb3hMMLtff1MWx6HU3a"><defs><circle cx="0" cy="0" r="1500" id="mQb3hMMLtff1MWx6HU3a_pad-10"/><g id="mQb3hMMLtff1MWx6HU3a_pad-11"><polygon points="-300,-300 300,-300 300,300 -300,300"/><circle cx="-300" cy="-300" r="300"/><circle cx="300" cy="-300" r="300"/><circle cx="300" cy="300" r="300"/><circle cx="-300" cy="300" r="300"/><polygon points="-300,-600 300,-600 300,0 -300,0"/><polygon points="600,-300 600,300 0,300 0,-300"/><polygon points="300,0 -300,0 -300,600 300,600"/><polygon points="0,300 0,-300 -600,-300 -600,300"/></g><g id="mQb3hMMLtff1MWx6HU3a_pad-12"><polygon points="-425,-375 425,-375 425,375 -425,375"/><circle cx="-425" cy="-375" r="375"/><circle cx="425" cy="-375" r="375"/><circle cx="425" cy="375" r="375"/><circle cx="-425" cy="375" r="375"/><polygon points="-425,-750 425,-750 425,0 -425,0"/><polygon points="800,-375 800,375 50,375 50,-375"/><polygon points="425,0 -425,0 -425,750 425,750"/><polygon points="-50,375 -50,-375 -800,-375 -800,375"/></g><g id="mQb3hMMLtff1MWx6HU3a_pad-13"><polygon points="-2050,600 -2050,-600 2050,-600 2050,600"/><circle cx="-2050" cy="600" r="600"/><circle cx="-2050" cy="-600" r="600"/><circle cx="2050" cy="-600" r="600"/><circle cx="2050" cy="600" r="600"/><polygon points="-1450,600 -1450,-600 -2650,-600 -2650,600"/><polygon points="-2050,-1200 2050,-1200 2050,0 -2050,0"/><polygon points="2650,-600 2650,600 1450,600 1450,-600"/><polygon points="2050,0 -2050,0 -2050,1200 2050,1200"/></g><g id="mQb3hMMLtff1MWx6HU3a_pad-14"><polygon points="300,237.5 -300,237.5 -300,-237.5 300,-237.5"/><circle cx="300" cy="237.5" r="237.5"/><circle cx="-300" cy="237.5" r="237.5"/><circle cx="-300" cy="-237.5" r="237.5"/><circle cx="300" cy="-237.5" r="237.5"/><polygon points="300,0 -300,0 -300,475 300,475"/><polygon points="-62.5,237.5 -62.5,-237.5 -537.5,-237.5 -537.5,237.5"/><polygon points="-300,-475 300,-475 300,0 -300,0"/><polygon points="537.5,-237.5 537.5,237.5 62.5,237.5 62.5,-237.5"/></g><rect x="-850" y="-850" width="1700" height="1700" id="mQb3hMMLtff1MWx6HU3a_pad-15"/><g id="mQb3hMMLtff1MWx6HU3a_pad-16"><polygon points="-687.5,-62.5 687.5,-62.5 687.5,62.5 -687.5,62.5"/><circle cx="-687.5" cy="-62.5" r="62.5"/><circle cx="687.5" cy="-62.5" r="62.5"/><circle cx="687.5" cy="62.5" r="62.5"/><circle cx="-687.5" cy="62.5" r="62.5"/><polygon points="-687.5,-125 687.5,-125 687.5,0 -687.5,0"/><polygon points="750,-62.5 750,62.5 625,62.5 625,-62.5"/><polygon points="687.5,0 -687.5,0 -687.5,125 687.5,125"/><polygon points="-625,62.5 -625,-62.5 -750,-62.5 -750,62.5"/></g><g id="mQb3hMMLtff1MWx6HU3a_pad-17"><polygon points="-62.5,-287.5 62.5,-287.5 62.5,287.5 -62.5,287.5"/><circle cx="-62.5" cy="-287.5" r="62.5"/><circle cx="62.5" cy="-287.5" r="62.5"/><circle cx="62.5" cy="287.5" r="62.5"/><circle cx="-62.5" cy="287.5" r="62.5"/><polygon points="-62.5,-350 62.5,-350 62.5,-225 -62.5,-225"/><polygon points="125,-287.5 125,287.5 0,287.5 0,-287.5"/><polygon points="62.5,225 -62.5,225 -62.5,350 62.5,350"/><polygon points="0,287.5 0,-287.5 -125,-287.5 -125,287.5"/></g><g id="mQb3hMMLtff1MWx6HU3a_pad-18"><polygon points="-287.5,-62.5 287.5,-62.5 287.5,62.5 -287.5,62.5"/><circle cx="-287.5" cy="-62.5" r="62.5"/><circle cx="287.5" cy="-62.5" r="62.5"/><circle cx="287.5" cy="62.5" r="62.5"/><circle cx="-287.5" cy="62.5" r="62.5"/><polygon points="-287.5,-125 287.5,-125 287.5,0 -287.5,0"/><polygon points="350,-62.5 350,62.5 225,62.5 225,-62.5"/><polygon points="287.5,0 -287.5,0 -287.5,125 287.5,125"/><polygon points="-225,62.5 -225,-62.5 -350,-62.5 -350,62.5"/></g><g id="mQb3hMMLtff1MWx6HU3a_pad-19"><polygon points="-475,337.5 -475,-337.5 475,-337.5 475,337.5"/><circle cx="-475" cy="337.5" r="250"/><circle cx="-475" cy="-337.5" r="250"/><circle cx="475" cy="-337.5" r="250"/><circle cx="475" cy="337.5" r="250"/><polygon points="-225,337.5 -225,-337.5 -725,-337.5 -725,337.5"/><polygon points="-475,-587.5 475,-587.5 475,-87.5 -475,-87.5"/><polygon points="725,-337.5 725,337.5 225,337.5 225,-337.5"/><polygon points="475,87.5 -475,87.5 -475,587.5 475,587.5"/></g><g id="mQb3hMMLtff1MWx6HU3a_pad-20"><polygon points="400,625 -400,625 -400,-625 400,-625"/><circle cx="400" cy="625" r="250"/><circle cx="-400" cy="625" r="250"/><circle cx="-400" cy="-625" r="250"/><circle cx="400" cy="-625" r="250"/><polygon points="400,375 -400,375 -400,875 400,875"/><polygon points="-150,625 -150,-625 -650,-625 -650,625"/><polygon points="-400,-875 400,-875 400,-375 -400,-375"/><polygon points="650,-625 650,625 150,625 150,-625"/></g><g id="mQb3hMMLtff1MWx6HU3a_pad-21"><polygon points="-625,400 -625,-400 625,-400 625,400"/><circle cx="-625" cy="400" r="250"/><circle cx="-625" cy="-400" r="250"/><circle cx="625" cy="-400" r="250"/><circle cx="625" cy="400" r="250"/><polygon points="-375,400 -375,-400 -875,-400 -875,400"/><polygon points="-625,-650 625,-650 625,-150 -625,-150"/><polygon points="875,-400 875,400 375,400 375,-400"/><polygon points="625,150 -625,150 -625,650 625,650"/></g><g id="mQb3hMMLtff1MWx6HU3a_pad-22"><polygon points="337.5,475 -337.5,475 -337.5,-475 337.5,-475"/><circle cx="337.5" cy="475" r="250"/><circle cx="-337.5" cy="475" r="250"/><circle cx="-337.5" cy="-475" r="250"/><circle cx="337.5" cy="-475" r="250"/><polygon points="337.5,225 -337.5,225 -337.5,725 337.5,725"/><polygon points="-87.5,475 -87.5,-475 -587.5,-475 -587.5,475"/><polygon points="-337.5,-725 337.5,-725 337.5,-225 -337.5,-225"/><polygon points="587.5,-475 587.5,475 87.5,475 87.5,-475"/></g><g id="mQb3hMMLtff1MWx6HU3a_pad-23"><polygon points="212.5,155 -212.5,155 -212.5,-155 212.5,-155"/><circle cx="212.5" cy="155" r="155"/><circle cx="-212.5" cy="155" r="155"/><circle cx="-212.5" cy="-155" r="155"/><circle cx="212.5" cy="-155" r="155"/><polygon points="212.5,0 -212.5,0 -212.5,310 212.5,310"/><polygon points="-57.5,155 -57.5,-155 -367.5,-155 -367.5,155"/><polygon points="-212.5,-310 212.5,-310 212.5,0 -212.5,0"/><polygon points="367.5,-155 367.5,155 57.5,155 57.5,-155"/></g><g id="mQb3hMMLtff1MWx6HU3a_pad-24"><polygon points="450,-350 450,350 -450,350 -450,-350"/><circle cx="450" cy="-350" r="250"/><circle cx="450" cy="350" r="250"/><circle cx="-450" cy="350" r="250"/><circle cx="-450" cy="-350" r="250"/><polygon points="700,-350 700,350 200,350 200,-350"/><polygon points="450,100 -450,100 -450,600 450,600"/><polygon points="-200,350 -200,-350 -700,-350 -700,350"/><polygon points="-450,-600 450,-600 450,-100 -450,-100"/></g><g id="mQb3hMMLtff1MWx6HU3a_pad-25"><polygon points="-155,212.5 -155,-212.5 155,-212.5 155,212.5"/><circle cx="-155" cy="212.5" r="155"/><circle cx="-155" cy="-212.5" r="155"/><circle cx="155" cy="-212.5" r="155"/><circle cx="155" cy="212.5" r="155"/><polygon points="0,212.5 0,-212.5 -310,-212.5 -310,212.5"/><polygon points="-155,-367.5 155,-367.5 155,-57.5 -155,-57.5"/><polygon points="310,-212.5 310,212.5 0,212.5 0,-212.5"/><polygon points="155,57.5 -155,57.5 -155,367.5 155,367.5"/></g></defs><g transform="translate(0,-175000) scale(1,-1)" fill="currentColor" stroke="currentColor"><use xlink:href="#mQb3hMMLtff1MWx6HU3a_pad-10" x="130500" y="-115800"/><use xlink:href="#mQb3hMMLtff1MWx6HU3a_pad-10" x="97400" y="-116300"/><use xlink:href="#mQb3hMMLtff1MWx6HU3a_pad-10" x="97400" y="-58700"/><use xlink:href="#mQb3hMMLtff1MWx6HU3a_pad-10" x="130500" y="-58700"/><use xlink:href="#mQb3hMMLtff1MWx6HU3a_pad-11" x="117100" y="-68700"/><use xlink:href="#mQb3hMMLtff1MWx6HU3a_pad-12" x="118100" y="-65450"/><use xlink:href="#mQb3hMMLtff1MWx6HU3a_pad-11" x="119100" y="-68700"/><use xlink:href="#mQb3hMMLtff1MWx6HU3a_pad-13" x="128000" y="-91100"/><use xlink:href="#mQb3hMMLtff1MWx6HU3a_pad-13" x="128000" y="-95100"/><use xlink:href="#mQb3hMMLtff1MWx6HU3a_pad-14" x="121800" y="-92900"/><use xlink:href="#mQb3hMMLtff1MWx6HU3a_pad-14" x="120075" y="-92900"/><use xlink:href="#mQb3hMMLtff1MWx6HU3a_pad-15" x="97900" y="-66100"/><use xlink:href="#mQb3hMMLtff1MWx6HU3a_pad-16" x="120000" y="-86500"/><use xlink:href="#mQb3hMMLtff1MWx6HU3a_pad-16" x="120000" y="-87000"/><use xlink:href="#mQb3hMMLtff1MWx6HU3a_pad-17" x="119850" y="-88450"/><use xlink:href="#mQb3hMMLtff1MWx6HU3a_pad-17" x="120350" y="-88450"/><use xlink:href="#mQb3hMMLtff1MWx6HU3a_pad-17" x="120850" y="-88450"/><use xlink:href="#mQb3hMMLtff1MWx6HU3a_pad-17" x="121350" y="-88450"/><use xlink:href="#mQb3hMMLtff1MWx6HU3a_pad-16" x="121200" y="-87500"/><use xlink:href="#mQb3hMMLtff1MWx6HU3a_pad-18" x="121600" y="-86500"/><use xlink:href="#mQb3hMMLtff1MWx6HU3a_pad-17" x="121360" y="-85550"/><use xlink:href="#mQb3hMMLtff1MWx6HU3a_pad-17" x="120860" y="-85550"/><use xlink:href="#mQb3hMMLtff1MWx6HU3a_pad-17" x="120360" y="-85550"/><use xlink:href="#mQb3hMMLtff1MWx6HU3a_pad-17" x="119860" y="-85550"/><use xlink:href="#mQb3hMMLtff1MWx6HU3a_pad-19" x="108700" y="-80200"/><use xlink:href="#mQb3hMMLtff1MWx6HU3a_pad-19" x="108700" y="-82275"/><use xlink:href="#mQb3hMMLtff1MWx6HU3a_pad-15" x="97400" y="-81300"/><use xlink:href="#mQb3hMMLtff1MWx6HU3a_pad-20" x="118400" y="-90400"/><use xlink:href="#mQb3hMMLtff1MWx6HU3a_pad-20" x="115300" y="-90400"/><use xlink:href="#mQb3hMMLtff1MWx6HU3a_pad-21" x="127800" y="-79500"/><use xlink:href="#mQb3hMMLtff1MWx6HU3a_pad-21" x="127800" y="-82600"/><use xlink:href="#mQb3hMMLtff1MWx6HU3a_pad-22" x="115037.5" y="-110000"/><use xlink:href="#mQb3hMMLtff1MWx6HU3a_pad-22" x="112962.5" y="-110000"/><use xlink:href="#mQb3hMMLtff1MWx6HU3a_pad-22" x="115037.5" y="-100000"/><use xlink:href="#mQb3hMMLtff1MWx6HU3a_pad-22" x="112962.5" y="-100000"/><use xlink:href="#mQb3hMMLtff1MWx6HU3a_pad-23" x="112167.5" y="-90400"/><use xlink:href="#mQb3hMMLtff1MWx6HU3a_pad-23" x="111032.5" y="-90400"/><use xlink:href="#mQb3hMMLtff1MWx6HU3a_pad-15" x="97100" y="-106300"/><use xlink:href="#mQb3hMMLtff1MWx6HU3a_pad-22" x="115037.5" y="-105000"/><use xlink:href="#mQb3hMMLtff1MWx6HU3a_pad-22" x="112962.5" y="-105000"/><use xlink:href="#mQb3hMMLtff1MWx6HU3a_pad-24" x="120700" y="-78900"/><use xlink:href="#mQb3hMMLtff1MWx6HU3a_pad-24" x="120700" y="-76900"/><use xlink:href="#mQb3hMMLtff1MWx6HU3a_pad-25" x="127800" y="-86365"/><use xlink:href="#mQb3hMMLtff1MWx6HU3a_pad-25" x="127800" y="-87500"/><use xlink:href="#mQb3hMMLtff1MWx6HU3a_pad-15" x="97200" y="-89400"/><use xlink:href="#mQb3hMMLtff1MWx6HU3a_pad-22" x="115037.5" y="-115000"/><use xlink:href="#mQb3hMMLtff1MWx6HU3a_pad-22" x="112962.5" y="-115000"/></g></svg>