<svg version="1.1" xmlns="http://www.w3.org/2000/svg" xmlns:xlink="http://www.w3.org/1999/xlink" stroke-linecap="round" stroke-linejoin="round" stroke-width="0" fill-rule="evenodd" width="29.115mm" height="42.65mm" viewBox="96250 -107900 29115 42650" id="tdQ_zYvwjg_8btT3MqKl"><defs><rect x="-850" y="-850" width="1700" height="1700" id="tdQ_zYvwjg_8btT3MqKl_pad-10"/><circle cx="0" cy="0" r="400" id="tdQ_zYvwjg_8btT3MqKl_pad-11"/></defs><g transform="translate(0,-173150) scale(1,-1)" fill="currentColor" stroke="currentColor"><use xlink:href="#tdQ_zYvwjg_8btT3MqKl_pad-10" x="97900" y="-66100"/><use xlink:href="#tdQ_zYvwjg_8btT3MqKl_pad-10" x="97400" y="-81300"/><use xlink:href="#tdQ_zYvwjg_8btT3MqKl_pad-10" x="97100" y="-106300"/><use xlink:href="#tdQ_zYvwjg_8btT3MqKl_pad-10" x="97200" y="-89400"/><use xlink:href="#tdQ_zYvwjg_8btT3MqKl_pad-11" x="124850" y="-85070"/><use xlink:href="#tdQ_zYvwjg_8btT3MqKl_pad-11" x="121600" y="-86500"/><use xlink:href="#tdQ_zYvwjg_8btT3MqKl_pad-11" x="108700" y="-72500"/><use xlink:href="#tdQ_zYvwjg_8btT3MqKl_pad-11" x="102700" y="-72300"/><use xlink:href="#tdQ_zYvwjg_8btT3MqKl_pad-11" x="97400" y="-85200"/><use xlink:href="#tdQ_zYvwjg_8btT3MqKl_pad-11" x="122800" y="-81900"/><use xlink:href="#tdQ_zYvwjg_8btT3MqKl_pad-11" x="115700" y="-88500"/><use xlink:href="#tdQ_zYvwjg_8btT3MqKl_pad-11" x="120500" y="-102800"/><use xlink:href="#tdQ_zYvwjg_8btT3MqKl_pad-11" x="120900" y="-89900"/><use xlink:href="#tdQ_zYvwjg_8btT3MqKl_pad-11" x="97000" y="-100000"/><use xlink:href="#tdQ_zYvwjg_8btT3MqKl_pad-11" x="120300" y="-107400"/><path d="M 123350 -86500 124740 -85110 M 121600 -86500 123350 -86500" fill="none" stroke-width="1250"/><path d="M 97900 -66100 97900 -71300 M 98900 -72300 108500 -72300 108700 -72500 M 97900 -71300 A 1000 1000 0 0 1 98900 -72300 M 97400 -89200 97200 -89400 M 97400 -85200 97400 -89200 M 97400 -81300 97400 -85200 M 115600 -88400 115700 -88500 M 122800 -81900 117914.214 -81900 M 117207.107 -82192.893 115892.893 -83507.107 M 115600 -84214.214 115600 -88400 M 115892.866 -83507.08 A 1000.0993076 1000.0993076 0 0 1 115600 -84214.214 M 117914.214 -81900.01 A 999.9900001 999.9900001 0 0 1 117207.107 -82192.893 M 106200 -107400 120300 -107400 M 120900 -89900 120900 -102600 M 105100 -106300 106200 -107400 M 97100 -100100 97000 -100000 M 97100 -106300 105100 -106300 M 97100 -106300 97100 -100100" fill="none" stroke-width="1000"/><path d="M 97100 -106300 97200 -106400" fill="none" stroke-width="250"/><path d="M 120900 -102600 120500 -103000" fill="none" stroke-width="1000"/><path d="M 97100 -106300 97000 -106200" fill="none" stroke-width="250"/></g></svg>