<svg version="1.1" xmlns="http://www.w3.org/2000/svg" xmlns:xlink="http://www.w3.org/1999/xlink" stroke-linecap="round" stroke-linejoin="round" stroke-width="0" fill-rule="evenodd" width="21.435717mm" height="1.483333mm" viewBox="103250.122 -119878.152 21435.717 1483.333" id="BJ3sb7-w7Oa_SVHleYoS"><g transform="translate(0,-238272.971) scale(1,-1)" fill="currentColor" stroke="currentColor"><path d="M 124134.649 -119469.819 124134.649 -118469.819 M 124134.649 -119422.2 124229.887 -119469.819 124420.363 -119469.819 124515.601 -119422.2 124563.22 -119374.58 124610.839 -119279.342 124610.839 -118993.628 124563.22 -118898.39 124515.601 -118850.771 124420.363 -118803.152 124229.887 -118803.152 124134.649 -118850.771 M 123658.458 -119469.819 123658.458 -118469.819 M 123563.22 -119088.866 123277.506 -119469.819 M 123277.506 -118803.152 123658.458 -119184.104 M 122420.363 -119469.819 122420.363 -118946.009 122467.982 -118850.771 122563.22 -118803.152 122753.696 -118803.152 122848.934 -118850.771 M 122420.363 -119422.2 122515.601 -119469.819 122753.696 -119469.819 122848.934 -119422.2 122896.553 -119326.961 122896.553 -119231.723 122848.934 -119136.485 122753.696 -119088.866 122515.601 -119088.866 122420.363 -119041.247 M 121944.172 -119469.819 121944.172 -118803.152 M 121944.172 -118993.628 121896.553 -118898.39 121848.934 -118850.771 121753.696 -118803.152 121658.458 -118803.152 M 121182.267 -119469.819 121277.505 -119422.2 121325.124 -119374.58 121372.743 -119279.342 121372.743 -118993.628 121325.124 -118898.39 121277.505 -118850.771 121182.267 -118803.152 121039.41 -118803.152 120944.172 -118850.771 120896.553 -118898.39 120848.934 -118993.628 120848.934 -119279.342 120896.553 -119374.58 120944.172 -119422.2 121039.41 -119469.819 121182.267 -119469.819 M 120420.362 -119469.819 120420.362 -118803.152 M 120420.362 -118993.628 120372.743 -118898.39 120325.124 -118850.771 120229.886 -118803.152 120134.648 -118803.152 M 119372.743 -119469.819 119372.743 -118946.009 119420.362 -118850.771 119515.6 -118803.152 119706.076 -118803.152 119801.314 -118850.771 M 119372.743 -119422.2 119467.981 -119469.819 119706.076 -119469.819 119801.314 -119422.2 119848.933 -119326.961 119848.933 -119231.723 119801.314 -119136.485 119706.076 -119088.866 119467.981 -119088.866 119372.743 -119041.247 M 118515.6 -119422.2 118610.838 -119469.819 118801.314 -119469.819 118896.552 -119422.2 118944.171 -119326.961 118944.171 -118946.009 118896.552 -118850.771 118801.314 -118803.152 118610.838 -118803.152 118515.6 -118850.771 118467.981 -118946.009 118467.981 -119041.247 118944.171 -119136.485 M 117896.552 -119469.819 117991.79 -119422.2 118039.409 -119326.961 118039.409 -118469.819 M 117134.647 -119422.2 117229.885 -119469.819 117420.361 -119469.819 117515.599 -119422.2 117563.218 -119326.961 117563.218 -118946.009 117515.599 -118850.771 117420.361 -118803.152 117229.885 -118803.152 117134.647 -118850.771 117087.028 -118946.009 117087.028 -119041.247 117563.218 -119136.485 M 116229.885 -119422.2 116325.123 -119469.819 116515.599 -119469.819 116610.837 -119422.2 116658.456 -119374.58 116706.075 -119279.342 116706.075 -118993.628 116658.456 -118898.39 116610.837 -118850.771 116515.599 -118803.152 116325.123 -118803.152 116229.885 -118850.771 M 115944.17 -118803.152 115563.218 -118803.152 M 115801.313 -118469.819 115801.313 -119326.961 115753.694 -119422.2 115658.456 -119469.819 115563.218 -119469.819 M 115229.884 -119469.819 115229.884 -118803.152 M 115229.884 -118993.628 115182.265 -118898.39 115134.646 -118850.771 115039.408 -118803.152 114944.17 -118803.152 M 114610.836 -119469.819 114610.836 -118803.152 M 114610.836 -118469.819 114658.455 -118517.438 114610.836 -118565.057 114563.217 -118517.438 114610.836 -118469.819 114610.836 -118565.057 M 113706.075 -119422.2 113801.313 -119469.819 113991.789 -119469.819 114087.027 -119422.2 114134.646 -119374.58 114182.265 -119279.342 114182.265 -118993.628 114134.646 -118898.39 114087.027 -118850.771 113991.789 -118803.152 113801.313 -118803.152 113706.075 -118850.771 M 112848.932 -119469.819 112848.932 -118946.009 112896.551 -118850.771 112991.789 -118803.152 113182.265 -118803.152 113277.503 -118850.771 M 112848.932 -119422.2 112944.17 -119469.819 113182.265 -119469.819 113277.503 -119422.2 113325.122 -119326.961 113325.122 -119231.723 113277.503 -119136.485 113182.265 -119088.866 112944.17 -119088.866 112848.932 -119041.247 M 112229.884 -119469.819 112325.122 -119422.2 112372.741 -119326.961 112372.741 -118469.819 M 111229.884 -118993.628 111277.503 -118946.009 111372.741 -118898.39 111467.979 -118898.39 111563.217 -118946.009 111610.836 -118993.628 111658.455 -119088.866 111658.455 -119184.104 111610.836 -119279.342 111563.217 -119326.961 111467.979 -119374.58 111372.741 -119374.58 111277.503 -119326.961 111229.884 -119279.342 M 111229.884 -118898.39 111229.884 -119279.342 111182.265 -119326.961 111134.646 -119326.961 111039.407 -119279.342 110991.788 -119184.104 110991.788 -118946.009 111087.027 -118803.152 111229.884 -118707.914 111420.36 -118660.295 111610.836 -118707.914 111753.693 -118803.152 111848.931 -118946.009 111896.55 -119136.485 111848.931 -119326.961 111753.693 -119469.819 111610.836 -119565.057 111420.36 -119612.676 111229.884 -119565.057 111087.027 -119469.819 M 110134.646 -118803.152 110134.646 -119612.676 110182.265 -119707.914 110229.884 -119755.533 110325.122 -119803.152 110467.979 -119803.152 110563.217 -119755.533 M 110134.646 -119422.2 110229.884 -119469.819 110420.36 -119469.819 110515.598 -119422.2 110563.217 -119374.58 110610.836 -119279.342 110610.836 -118993.628 110563.217 -118898.39 110515.598 -118850.771 110420.36 -118803.152 110229.884 -118803.152 110134.646 -118850.771 M 109658.455 -119469.819 109658.455 -118803.152 M 109658.455 -118898.39 109610.836 -118850.771 109515.598 -118803.152 109372.741 -118803.152 109277.503 -118850.771 109229.884 -118946.009 109229.884 -119469.819 M 109229.884 -118946.009 109182.265 -118850.771 109087.027 -118803.152 108944.17 -118803.152 108848.931 -118850.771 108801.312 -118946.009 108801.312 -119469.819 M 107896.551 -119469.819 107896.551 -118946.009 107944.17 -118850.771 108039.408 -118803.152 108229.884 -118803.152 108325.122 -118850.771 M 107896.551 -119422.2 107991.789 -119469.819 108229.884 -119469.819 108325.122 -119422.2 108372.741 -119326.961 108372.741 -119231.723 108325.122 -119136.485 108229.884 -119088.866 107991.789 -119088.866 107896.551 -119041.247 M 107420.36 -119469.819 107420.36 -118803.152 M 107420.36 -118469.819 107467.979 -118517.438 107420.36 -118565.057 107372.741 -118517.438 107420.36 -118469.819 107420.36 -118565.057 M 106801.313 -119469.819 106896.551 -119422.2 106944.17 -119326.961 106944.17 -118469.819 M 106420.36 -119374.58 106372.741 -119422.2 106420.36 -119469.819 106467.979 -119422.2 106420.36 -119374.58 106420.36 -119469.819 M 105515.599 -119422.2 105610.837 -119469.819 105801.313 -119469.819 105896.551 -119422.2 105944.17 -119374.58 105991.789 -119279.342 105991.789 -118993.628 105944.17 -118898.39 105896.551 -118850.771 105801.313 -118803.152 105610.837 -118803.152 105515.599 -118850.771 M 104944.17 -119469.819 105039.408 -119422.2 105087.027 -119374.58 105134.646 -119279.342 105134.646 -118993.628 105087.027 -118898.39 105039.408 -118850.771 104944.17 -118803.152 104801.313 -118803.152 104706.075 -118850.771 104658.456 -118898.39 104610.837 -118993.628 104610.837 -119279.342 104658.456 -119374.58 104706.075 -119422.2 104801.313 -119469.819 104944.17 -119469.819 M 104182.265 -119469.819 104182.265 -118803.152 M 104182.265 -118898.39 104134.646 -118850.771 104039.408 -118803.152 103896.551 -118803.152 103801.313 -118850.771 103753.694 -118946.009 103753.694 -119469.819 M 103753.694 -118946.009 103706.075 -118850.771 103610.837 -118803.152 103467.98 -118803.152 103372.741 -118850.771 103325.122 -118946.009 103325.122 -119469.819" fill="none" stroke-width="150"/></g></svg>