<svg version="1.1" xmlns="http://www.w3.org/2000/svg" xmlns:xlink="http://www.w3.org/1999/xlink" stroke-linecap="round" stroke-linejoin="round" stroke-width="0" fill-rule="evenodd" width="39.699701999999995mm" height="56mm" viewBox="93900.298 -118400 39699.702 56000" id="ZesJluFunrukyS4d5VcN"><defs><rect x="-850" y="-850" width="1700" height="1700" id="ZesJluFunrukyS4d5VcN_pad-10"/><circle cx="0" cy="0" r="400" id="ZesJluFunrukyS4d5VcN_pad-11"/></defs><g transform="translate(0,-180800) scale(1,-1)" fill="currentColor" stroke="currentColor"><use xlink:href="#ZesJluFunrukyS4d5VcN_pad-10" x="97900" y="-66100"/><use xlink:href="#ZesJluFunrukyS4d5VcN_pad-10" x="97400" y="-81300"/><use xlink:href="#ZesJluFunrukyS4d5VcN_pad-10" x="97100" y="-106300"/><use xlink:href="#ZesJluFunrukyS4d5VcN_pad-10" x="97200" y="-89400"/><use xlink:href="#ZesJluFunrukyS4d5VcN_pad-11" x="124850" y="-85070"/><use xlink:href="#ZesJluFunrukyS4d5VcN_pad-11" x="121600" y="-86500"/><use xlink:href="#ZesJluFunrukyS4d5VcN_pad-11" x="127800" y="-89000"/><use xlink:href="#ZesJluFunrukyS4d5VcN_pad-11" x="121575.63" y="-87499.205"/><use xlink:href="#ZesJluFunrukyS4d5VcN_pad-11" x="108700" y="-72500"/><use xlink:href="#ZesJluFunrukyS4d5VcN_pad-11" x="102700" y="-72300"/><use xlink:href="#ZesJluFunrukyS4d5VcN_pad-11" x="97400" y="-85200"/><use xlink:href="#ZesJluFunrukyS4d5VcN_pad-11" x="122800" y="-81900"/><use xlink:href="#ZesJluFunrukyS4d5VcN_pad-11" x="115700" y="-88500"/><use xlink:href="#ZesJluFunrukyS4d5VcN_pad-11" x="120500" y="-102800"/><use xlink:href="#ZesJluFunrukyS4d5VcN_pad-11" x="120800" y="-112900"/><use xlink:href="#ZesJluFunrukyS4d5VcN_pad-11" x="120900" y="-89900"/><use xlink:href="#ZesJluFunrukyS4d5VcN_pad-11" x="127800" y="-98700"/><use xlink:href="#ZesJluFunrukyS4d5VcN_pad-11" x="97000" y="-100000"/><use xlink:href="#ZesJluFunrukyS4d5VcN_pad-11" x="120300" y="-107400"/><path d="M 133543.039 -94519.685 133588.794 -94572.489 133600 -94624 133600 -118276 133580.315 -118343.039 133527.511 -118388.794 133476 -118400 114724 -118400 114656.961 -118380.315 114611.206 -118327.511 114600 -118276 114600 -115931.187 128749.5 -115931.187 128769.794 -116065.823 128788.604 -116190.615 128788.605 -116190.617 128788.606 -116190.623 128865.938 -116441.326 128979.767 -116677.696 128979.768 -116677.697 128979.77 -116677.7 128979.772 -116677.704 129127.567 -116894.479 129306.014 -117086.801 129306.018 -117086.804 129306.019 -117086.805 129511.143 -117250.386 129738.357 -117381.568 129982.584 -117477.42 130238.37 -117535.802 130238.376 -117535.802 130238.379 -117535.803 130434.5 -117550.5 130434.506 -117550.5 130565.5 -117550.5 130761.62 -117535.803 130761.622 -117535.802 130761.63 -117535.802 131017.416 -117477.42 131261.643 -117381.568 131488.857 -117250.386 131693.981 -117086.805 131872.433 -116894.479 132020.228 -116677.704 132134.063 -116441.323 132211.396 -116190.615 132250.5 -115931.182 132250.5 -115668.818 132211.396 -115409.385 132134.063 -115158.677 132122.121 -115133.88 132020.232 -114922.303 132020.231 -114922.302 132020.23 -114922.301 132020.228 -114922.296 131872.433 -114705.521 131862.441 -114694.753 131693.985 -114513.198 131654.533 -114481.736 131488.857 -114349.614 131261.643 -114218.432 131017.416 -114122.58 131017.411 -114122.578 131017.402 -114122.576 130799.818 -114072.914 130761.63 -114064.198 130761.629 -114064.197 130761.625 -114064.197 130761.62 -114064.196 130565.5 -114049.5 130565.494 -114049.5 130434.506 -114049.5 130434.5 -114049.5 130238.379 -114064.196 130238.374 -114064.197 129982.597 -114122.576 129982.578 -114122.582 129738.356 -114218.432 129511.143 -114349.614 129306.014 -114513.198 129127.567 -114705.52 128979.768 -114922.302 128979.767 -114922.303 128865.938 -115158.673 128788.606 -115409.376 128788.605 -115409.381 128788.604 -115409.385 128773.853 -115507.247 128749.5 -115668.812 128749.5 -115931.187 114600 -115931.187 114600 -94851.362 114619.685 -94784.323 114636.319 -94763.681 114863.681 -94536.319 114925.004 -94502.834 114951.362 -94500 133476 -94500 133543.039 -94519.685"/><path d="M 110181.945 -62419.685 110227.7 -62472.489 110238.906 -62523.882 110240.369 -64059.631 110240.369 -74135.631 110220.684 -74202.67 110167.88 -74248.425 110116.369 -74259.631 94191.731 -74259.631 94124.692 -74239.946 94104.05 -74223.312 93976.688 -74095.95 93943.203 -74034.627 93940.369 -74008.269 93940.369 -66997.844 96550 -66997.844 96556.401 -67057.372 96556.403 -67057.379 96606.645 -67192.086 96606.649 -67192.093 96692.809 -67307.187 96692.812 -67307.19 96807.906 -67393.35 96807.913 -67393.354 96942.62 -67443.596 96942.627 -67443.598 97002.155 -67449.999 97002.172 -67450 97650 -67450 97650 -66535.501 97757.685 -66584.68 97864.237 -66600 97935.763 -66600 98042.315 -66584.68 98150 -66535.501 98150 -67450 98797.828 -67450 98797.844 -67449.999 98857.372 -67443.598 98857.379 -67443.596 98992.086 -67393.354 98992.093 -67393.35 99107.187 -67307.19 99107.19 -67307.187 99193.35 -67192.093 99193.354 -67192.086 99243.596 -67057.379 99243.598 -67057.372 99249.999 -66997.844 99250 -66997.827 99250 -66350 98333.686 -66350 98359.493 -66309.844 98400 -66171.889 98400 -66028.111 98359.493 -65890.156 98333.686 -65850 99250 -65850 99250 -65202.172 99249.999 -65202.155 99243.598 -65142.627 99243.596 -65142.62 99193.354 -65007.913 99193.35 -65007.906 99107.19 -64892.812 99107.187 -64892.809 98992.093 -64806.649 98992.086 -64806.645 98857.379 -64756.403 98857.372 -64756.401 98797.844 -64750 98150 -64750 98150 -65664.498 98042.315 -65615.32 97935.763 -65600 97864.237 -65600 97757.685 -65615.32 97650 -65664.498 97650 -64750 97002.155 -64750 96942.627 -64756.401 96942.62 -64756.403 96807.913 -64806.645 96807.906 -64806.649 96692.812 -64892.809 96692.809 -64892.812 96606.649 -65007.906 96606.645 -65007.913 96556.403 -65142.62 96556.401 -65142.627 96550 -65202.155 96550 -65850 97466.314 -65850 97440.507 -65890.156 97400 -66028.111 97400 -66171.889 97440.507 -66309.844 97466.314 -66350 96550 -66350 96550 -66997.844 93940.369 -66997.844 93940.369 -62524 93960.054 -62456.961 94012.858 -62411.206 94064.369 -62400 110114.906 -62400 110181.945 -62419.685"/><path d="M 100643.039 -96819.685 100688.794 -96872.489 100700 -96924 100700 -111376 100680.315 -111443.039 100627.511 -111488.794 100576 -111500 94058.945 -111500 93991.906 -111480.315 93946.151 -111427.511 93934.945 -111376.297 93934.944 -111376 93924.927 -107197.844 95750 -107197.844 95756.401 -107257.372 95756.403 -107257.379 95806.645 -107392.086 95806.649 -107392.093 95892.809 -107507.187 95892.812 -107507.19 96007.906 -107593.35 96007.913 -107593.354 96142.62 -107643.596 96142.627 -107643.598 96202.155 -107649.999 96202.172 -107650 96850 -107650 96850 -106735.501 96957.685 -106784.68 97064.237 -106800 97135.763 -106800 97242.315 -106784.68 97350 -106735.501 97350 -107650 97997.828 -107650 97997.844 -107649.999 98057.372 -107643.598 98057.379 -107643.596 98192.086 -107593.354 98192.093 -107593.35 98307.187 -107507.19 98307.19 -107507.187 98393.35 -107392.093 98393.354 -107392.086 98443.596 -107257.379 98443.598 -107257.372 98449.999 -107197.844 98450 -107197.827 98450 -106550 97533.686 -106550 97559.493 -106509.844 97600 -106371.889 97600 -106228.111 97559.493 -106090.156 97533.686 -106050 98450 -106050 98450 -105402.172 98449.999 -105402.155 98443.598 -105342.627 98443.596 -105342.62 98393.354 -105207.913 98393.35 -105207.906 98307.19 -105092.812 98307.187 -105092.809 98192.093 -105006.649 98192.086 -105006.645 98057.379 -104956.403 98057.372 -104956.401 97997.844 -104950 97350 -104950 97350 -105864.498 97242.315 -105815.32 97135.763 -105800 97064.237 -105800 96957.685 -105815.32 96850 -105864.498 96850 -104950 96202.155 -104950 96142.627 -104956.401 96142.62 -104956.403 96007.913 -105006.645 96007.906 -105006.649 95892.812 -105092.809 95892.809 -105092.812 95806.649 -105207.906 95806.645 -105207.913 95756.403 -105342.62 95756.401 -105342.627 95750 -105402.155 95750 -106050 96666.314 -106050 96640.507 -106090.156 96600 -106228.111 96600 -106371.889 96640.507 -106509.844 96666.314 -106550 95750 -106550 95750 -107197.844 93924.927 -107197.844 93900.298 -96924.297 93919.822 -96857.211 93972.516 -96811.329 94024.298 -96800 100576 -96800 100643.039 -96819.685"/><path d="M 132995.677 -87169.685 133016.319 -87186.319 133243.681 -87413.681 133277.166 -87475.004 133280 -87501.362 133280 -92626 133260.315 -92693.039 133207.511 -92738.794 133156 -92750 123531.362 -92750 123464.323 -92730.315 123443.681 -92713.681 123016.319 -92286.319 122982.834 -92224.996 122980 -92198.638 122980 -87950 122880 -87850 121331.362 -87850 121264.323 -87830.315 121243.681 -87813.681 121216.319 -87786.319 121182.834 -87724.996 121180 -87698.638 121180 -87484.471 121199.685 -87417.432 121252.489 -87371.677 121321.647 -87361.733 121329.777 -87363.18 121505.354 -87400.5 121505.355 -87400.5 121694.644 -87400.5 121694.646 -87400.5 121879.803 -87361.144 122052.73 -87284.151 122187.385 -87186.319 122204.779 -87173.682 122270.585 -87150.202 122277.664 -87150 132928.638 -87150 132995.677 -87169.685"/></g></svg>