<svg version="1.1" xmlns="http://www.w3.org/2000/svg" xmlns:xlink="http://www.w3.org/1999/xlink" stroke-linecap="round" stroke-linejoin="round" stroke-width="0" fill-rule="evenodd" width="34.4mm" height="51.025mm" viewBox="96250 -115725 34400 51025" id="pjUyzuhU-wo_oPkAhhE2"><defs><g id="pjUyzuhU-wo_oPkAhhE2_pad-10"><polygon points="-300,-300 300,-300 300,300 -300,300"/><circle cx="-300" cy="-300" r="300"/><circle cx="300" cy="-300" r="300"/><circle cx="300" cy="300" r="300"/><circle cx="-300" cy="300" r="300"/><polygon points="-300,-600 300,-600 300,0 -300,0"/><polygon points="600,-300 600,300 0,300 0,-300"/><polygon points="300,0 -300,0 -300,600 300,600"/><polygon points="0,300 0,-300 -600,-300 -600,300"/></g><g id="pjUyzuhU-wo_oPkAhhE2_pad-11"><polygon points="-425,-375 425,-375 425,375 -425,375"/><circle cx="-425" cy="-375" r="375"/><circle cx="425" cy="-375" r="375"/><circle cx="425" cy="375" r="375"/><circle cx="-425" cy="375" r="375"/><polygon points="-425,-750 425,-750 425,0 -425,0"/><polygon points="800,-375 800,375 50,375 50,-375"/><polygon points="425,0 -425,0 -425,750 425,750"/><polygon points="-50,375 -50,-375 -800,-375 -800,375"/></g><g id="pjUyzuhU-wo_oPkAhhE2_pad-12"><polygon points="-2050,600 -2050,-600 2050,-600 2050,600"/><circle cx="-2050" cy="600" r="600"/><circle cx="-2050" cy="-600" r="600"/><circle cx="2050" cy="-600" r="600"/><circle cx="2050" cy="600" r="600"/><polygon points="-1450,600 -1450,-600 -2650,-600 -2650,600"/><polygon points="-2050,-1200 2050,-1200 2050,0 -2050,0"/><polygon points="2650,-600 2650,600 1450,600 1450,-600"/><polygon points="2050,0 -2050,0 -2050,1200 2050,1200"/></g><g id="pjUyzuhU-wo_oPkAhhE2_pad-13"><polygon points="300,237.5 -300,237.5 -300,-237.5 300,-237.5"/><circle cx="300" cy="237.5" r="237.5"/><circle cx="-300" cy="237.5" r="237.5"/><circle cx="-300" cy="-237.5" r="237.5"/><circle cx="300" cy="-237.5" r="237.5"/><polygon points="300,0 -300,0 -300,475 300,475"/><polygon points="-62.5,237.5 -62.5,-237.5 -537.5,-237.5 -537.5,237.5"/><polygon points="-300,-475 300,-475 300,0 -300,0"/><polygon points="537.5,-237.5 537.5,237.5 62.5,237.5 62.5,-237.5"/></g><rect x="-850" y="-850" width="1700" height="1700" id="pjUyzuhU-wo_oPkAhhE2_pad-14"/><g id="pjUyzuhU-wo_oPkAhhE2_pad-15"><polygon points="-687.5,-62.5 687.5,-62.5 687.5,62.5 -687.5,62.5"/><circle cx="-687.5" cy="-62.5" r="62.5"/><circle cx="687.5" cy="-62.5" r="62.5"/><circle cx="687.5" cy="62.5" r="62.5"/><circle cx="-687.5" cy="62.5" r="62.5"/><polygon points="-687.5,-125 687.5,-125 687.5,0 -687.5,0"/><polygon points="750,-62.5 750,62.5 625,62.5 625,-62.5"/><polygon points="687.5,0 -687.5,0 -687.5,125 687.5,125"/><polygon points="-625,62.5 -625,-62.5 -750,-62.5 -750,62.5"/></g><g id="pjUyzuhU-wo_oPkAhhE2_pad-16"><polygon points="-62.5,-287.5 62.5,-287.5 62.5,287.5 -62.5,287.5"/><circle cx="-62.5" cy="-287.5" r="62.5"/><circle cx="62.5" cy="-287.5" r="62.5"/><circle cx="62.5" cy="287.5" r="62.5"/><circle cx="-62.5" cy="287.5" r="62.5"/><polygon points="-62.5,-350 62.5,-350 62.5,-225 -62.5,-225"/><polygon points="125,-287.5 125,287.5 0,287.5 0,-287.5"/><polygon points="62.5,225 -62.5,225 -62.5,350 62.5,350"/><polygon points="0,287.5 0,-287.5 -125,-287.5 -125,287.5"/></g><g id="pjUyzuhU-wo_oPkAhhE2_pad-17"><polygon points="-287.5,-62.5 287.5,-62.5 287.5,62.5 -287.5,62.5"/><circle cx="-287.5" cy="-62.5" r="62.5"/><circle cx="287.5" cy="-62.5" r="62.5"/><circle cx="287.5" cy="62.5" r="62.5"/><circle cx="-287.5" cy="62.5" r="62.5"/><polygon points="-287.5,-125 287.5,-125 287.5,0 -287.5,0"/><polygon points="350,-62.5 350,62.5 225,62.5 225,-62.5"/><polygon points="287.5,0 -287.5,0 -287.5,125 287.5,125"/><polygon points="-225,62.5 -225,-62.5 -350,-62.5 -350,62.5"/></g><g id="pjUyzuhU-wo_oPkAhhE2_pad-18"><polygon points="-475,337.5 -475,-337.5 475,-337.5 475,337.5"/><circle cx="-475" cy="337.5" r="250"/><circle cx="-475" cy="-337.5" r="250"/><circle cx="475" cy="-337.5" r="250"/><circle cx="475" cy="337.5" r="250"/><polygon points="-225,337.5 -225,-337.5 -725,-337.5 -725,337.5"/><polygon points="-475,-587.5 475,-587.5 475,-87.5 -475,-87.5"/><polygon points="725,-337.5 725,337.5 225,337.5 225,-337.5"/><polygon points="475,87.5 -475,87.5 -475,587.5 475,587.5"/></g><g id="pjUyzuhU-wo_oPkAhhE2_pad-19"><polygon points="400,625 -400,625 -400,-625 400,-625"/><circle cx="400" cy="625" r="250"/><circle cx="-400" cy="625" r="250"/><circle cx="-400" cy="-625" r="250"/><circle cx="400" cy="-625" r="250"/><polygon points="400,375 -400,375 -400,875 400,875"/><polygon points="-150,625 -150,-625 -650,-625 -650,625"/><polygon points="-400,-875 400,-875 400,-375 -400,-375"/><polygon points="650,-625 650,625 150,625 150,-625"/></g><g id="pjUyzuhU-wo_oPkAhhE2_pad-20"><polygon points="-625,400 -625,-400 625,-400 625,400"/><circle cx="-625" cy="400" r="250"/><circle cx="-625" cy="-400" r="250"/><circle cx="625" cy="-400" r="250"/><circle cx="625" cy="400" r="250"/><polygon points="-375,400 -375,-400 -875,-400 -875,400"/><polygon points="-625,-650 625,-650 625,-150 -625,-150"/><polygon points="875,-400 875,400 375,400 375,-400"/><polygon points="625,150 -625,150 -625,650 625,650"/></g><g id="pjUyzuhU-wo_oPkAhhE2_pad-21"><polygon points="337.5,475 -337.5,475 -337.5,-475 337.5,-475"/><circle cx="337.5" cy="475" r="250"/><circle cx="-337.5" cy="475" r="250"/><circle cx="-337.5" cy="-475" r="250"/><circle cx="337.5" cy="-475" r="250"/><polygon points="337.5,225 -337.5,225 -337.5,725 337.5,725"/><polygon points="-87.5,475 -87.5,-475 -587.5,-475 -587.5,475"/><polygon points="-337.5,-725 337.5,-725 337.5,-225 -337.5,-225"/><polygon points="587.5,-475 587.5,475 87.5,475 87.5,-475"/></g><g id="pjUyzuhU-wo_oPkAhhE2_pad-22"><polygon points="212.5,155 -212.5,155 -212.5,-155 212.5,-155"/><circle cx="212.5" cy="155" r="155"/><circle cx="-212.5" cy="155" r="155"/><circle cx="-212.5" cy="-155" r="155"/><circle cx="212.5" cy="-155" r="155"/><polygon points="212.5,0 -212.5,0 -212.5,310 212.5,310"/><polygon points="-57.5,155 -57.5,-155 -367.5,-155 -367.5,155"/><polygon points="-212.5,-310 212.5,-310 212.5,0 -212.5,0"/><polygon points="367.5,-155 367.5,155 57.5,155 57.5,-155"/></g><g id="pjUyzuhU-wo_oPkAhhE2_pad-23"><polygon points="450,-350 450,350 -450,350 -450,-350"/><circle cx="450" cy="-350" r="250"/><circle cx="450" cy="350" r="250"/><circle cx="-450" cy="350" r="250"/><circle cx="-450" cy="-350" r="250"/><polygon points="700,-350 700,350 200,350 200,-350"/><polygon points="450,100 -450,100 -450,600 450,600"/><polygon points="-200,350 -200,-350 -700,-350 -700,350"/><polygon points="-450,-600 450,-600 450,-100 -450,-100"/></g><g id="pjUyzuhU-wo_oPkAhhE2_pad-24"><polygon points="-155,212.5 -155,-212.5 155,-212.5 155,212.5"/><circle cx="-155" cy="212.5" r="155"/><circle cx="-155" cy="-212.5" r="155"/><circle cx="155" cy="-212.5" r="155"/><circle cx="155" cy="212.5" r="155"/><polygon points="0,212.5 0,-212.5 -310,-212.5 -310,212.5"/><polygon points="-155,-367.5 155,-367.5 155,-57.5 -155,-57.5"/><polygon points="310,-212.5 310,212.5 0,212.5 0,-212.5"/><polygon points="155,57.5 -155,57.5 -155,367.5 155,367.5"/></g><circle cx="0" cy="0" r="400" id="pjUyzuhU-wo_oPkAhhE2_pad-25"/></defs><g transform="translate(0,-180425) scale(1,-1)" fill="currentColor" stroke="currentColor"><use xlink:href="#pjUyzuhU-wo_oPkAhhE2_pad-10" x="117100" y="-68700"/><use xlink:href="#pjUyzuhU-wo_oPkAhhE2_pad-11" x="118100" y="-65450"/><use xlink:href="#pjUyzuhU-wo_oPkAhhE2_pad-10" x="119100" y="-68700"/><use xlink:href="#pjUyzuhU-wo_oPkAhhE2_pad-12" x="128000" y="-91100"/><use xlink:href="#pjUyzuhU-wo_oPkAhhE2_pad-12" x="128000" y="-95100"/><use xlink:href="#pjUyzuhU-wo_oPkAhhE2_pad-13" x="121800" y="-92900"/><use xlink:href="#pjUyzuhU-wo_oPkAhhE2_pad-13" x="120075" y="-92900"/><use xlink:href="#pjUyzuhU-wo_oPkAhhE2_pad-14" x="97900" y="-66100"/><use xlink:href="#pjUyzuhU-wo_oPkAhhE2_pad-15" x="120000" y="-86500"/><use xlink:href="#pjUyzuhU-wo_oPkAhhE2_pad-15" x="120000" y="-87000"/><use xlink:href="#pjUyzuhU-wo_oPkAhhE2_pad-16" x="119850" y="-88450"/><use xlink:href="#pjUyzuhU-wo_oPkAhhE2_pad-16" x="120350" y="-88450"/><use xlink:href="#pjUyzuhU-wo_oPkAhhE2_pad-16" x="120850" y="-88450"/><use xlink:href="#pjUyzuhU-wo_oPkAhhE2_pad-16" x="121350" y="-88450"/><use xlink:href="#pjUyzuhU-wo_oPkAhhE2_pad-15" x="121200" y="-87500"/><use xlink:href="#pjUyzuhU-wo_oPkAhhE2_pad-17" x="121600" y="-86500"/><use xlink:href="#pjUyzuhU-wo_oPkAhhE2_pad-16" x="121360" y="-85550"/><use xlink:href="#pjUyzuhU-wo_oPkAhhE2_pad-16" x="120860" y="-85550"/><use xlink:href="#pjUyzuhU-wo_oPkAhhE2_pad-16" x="120360" y="-85550"/><use xlink:href="#pjUyzuhU-wo_oPkAhhE2_pad-16" x="119860" y="-85550"/><use xlink:href="#pjUyzuhU-wo_oPkAhhE2_pad-18" x="108700" y="-80200"/><use xlink:href="#pjUyzuhU-wo_oPkAhhE2_pad-18" x="108700" y="-82275"/><use xlink:href="#pjUyzuhU-wo_oPkAhhE2_pad-14" x="97400" y="-81300"/><use xlink:href="#pjUyzuhU-wo_oPkAhhE2_pad-19" x="118400" y="-90400"/><use xlink:href="#pjUyzuhU-wo_oPkAhhE2_pad-19" x="115300" y="-90400"/><use xlink:href="#pjUyzuhU-wo_oPkAhhE2_pad-20" x="127800" y="-79500"/><use xlink:href="#pjUyzuhU-wo_oPkAhhE2_pad-20" x="127800" y="-82600"/><use xlink:href="#pjUyzuhU-wo_oPkAhhE2_pad-21" x="115037.5" y="-110000"/><use xlink:href="#pjUyzuhU-wo_oPkAhhE2_pad-21" x="112962.5" y="-110000"/><use xlink:href="#pjUyzuhU-wo_oPkAhhE2_pad-21" x="115037.5" y="-100000"/><use xlink:href="#pjUyzuhU-wo_oPkAhhE2_pad-21" x="112962.5" y="-100000"/><use xlink:href="#pjUyzuhU-wo_oPkAhhE2_pad-22" x="112167.5" y="-90400"/><use xlink:href="#pjUyzuhU-wo_oPkAhhE2_pad-22" x="111032.5" y="-90400"/><use xlink:href="#pjUyzuhU-wo_oPkAhhE2_pad-14" x="97100" y="-106300"/><use xlink:href="#pjUyzuhU-wo_oPkAhhE2_pad-21" x="115037.5" y="-105000"/><use xlink:href="#pjUyzuhU-wo_oPkAhhE2_pad-21" x="112962.5" y="-105000"/><use xlink:href="#pjUyzuhU-wo_oPkAhhE2_pad-23" x="120700" y="-78900"/><use xlink:href="#pjUyzuhU-wo_oPkAhhE2_pad-23" x="120700" y="-76900"/><use xlink:href="#pjUyzuhU-wo_oPkAhhE2_pad-24" x="127800" y="-86365"/><use xlink:href="#pjUyzuhU-wo_oPkAhhE2_pad-24" x="127800" y="-87500"/><use xlink:href="#pjUyzuhU-wo_oPkAhhE2_pad-14" x="97200" y="-89400"/><use xlink:href="#pjUyzuhU-wo_oPkAhhE2_pad-21" x="115037.5" y="-115000"/><use xlink:href="#pjUyzuhU-wo_oPkAhhE2_pad-21" x="112962.5" y="-115000"/><use xlink:href="#pjUyzuhU-wo_oPkAhhE2_pad-25" x="124850" y="-85070"/><use xlink:href="#pjUyzuhU-wo_oPkAhhE2_pad-25" x="121600" y="-86500"/><use xlink:href="#pjUyzuhU-wo_oPkAhhE2_pad-25" x="127800" y="-89000"/><use xlink:href="#pjUyzuhU-wo_oPkAhhE2_pad-25" x="121575.63" y="-87499.205"/><use xlink:href="#pjUyzuhU-wo_oPkAhhE2_pad-25" x="108700" y="-72500"/><use xlink:href="#pjUyzuhU-wo_oPkAhhE2_pad-25" x="108600" y="-93900"/><use xlink:href="#pjUyzuhU-wo_oPkAhhE2_pad-25" x="120800" y="-83100"/><use xlink:href="#pjUyzuhU-wo_oPkAhhE2_pad-25" x="108600" y="-87000"/><use xlink:href="#pjUyzuhU-wo_oPkAhhE2_pad-25" x="109000" y="-90400"/><use xlink:href="#pjUyzuhU-wo_oPkAhhE2_pad-25" x="112200" y="-87000"/><use xlink:href="#pjUyzuhU-wo_oPkAhhE2_pad-25" x="108200" y="-112700"/><use xlink:href="#pjUyzuhU-wo_oPkAhhE2_pad-25" x="108300" y="-102400"/><use xlink:href="#pjUyzuhU-wo_oPkAhhE2_pad-25" x="122800" y="-81900"/><use xlink:href="#pjUyzuhU-wo_oPkAhhE2_pad-25" x="115700" y="-88500"/><use xlink:href="#pjUyzuhU-wo_oPkAhhE2_pad-25" x="120500" y="-102800"/><use xlink:href="#pjUyzuhU-wo_oPkAhhE2_pad-25" x="120800" y="-112900"/><use xlink:href="#pjUyzuhU-wo_oPkAhhE2_pad-25" x="120900" y="-89900"/><use xlink:href="#pjUyzuhU-wo_oPkAhhE2_pad-25" x="127800" y="-98700"/><path d="M 121599.702 -87499.205 121613.436 -87512.939 M 121575.63 -87499.205 121599.702 -87499.205 M 121575.63 -87499.205 121574.835 -87500 121200 -87500" fill="none" stroke-width="250"/><path d="M 124850 -84950 124900 -84900 M 124850 -85070 124850 -84950 M 124730 -85070 124850 -85070 M 127800 -89000 127800 -90900" fill="none" stroke-width="500"/><path d="M 108700 -80200 108700 -72500 M 117100 -68700 112914.214 -68700" fill="none" stroke-width="1000"/><path d="M 118100 -80600 117862.5 -80362.5" fill="none" stroke-width="250"/><path d="M 117862.5 -80362.5 108862.5 -80362.5" fill="none" stroke-width="1000"/><path d="M 118100 -85400 118100 -80600 M 108862.5 -80362.5 108700 -80200 M 119200 -86500 118100 -85400" fill="none" stroke-width="250"/><path d="M 112207.107 -68992.893 108700 -72500" fill="none" stroke-width="1000"/><path d="M 120000 -86500 119200 -86500" fill="none" stroke-width="250"/><path d="M 112914.214 -68700.01 A 999.9900001 999.9900001 0 0 1 112207.107 -68992.893" fill="none" stroke-width="1000"/><path d="M 120000 -87000 112200 -87000 M 120700 -83000 120800 -83100" fill="none" stroke-width="250"/><path d="M 109600 -92900 108600 -93900 M 108700 -82275 108700 -86900 M 108400 -101000 108400 -102300" fill="none" stroke-width="1000"/><path d="M 120700 -78900 120700 -83000 M 120860 -83160 120800 -83100" fill="none" stroke-width="250"/><path d="M 108200 -110200 108200 -112700 M 112962.5 -115000 108300 -115000 M 112962.5 -105000 109300 -105000 M 108300 -115000 108300 -112800 M 112962.5 -100000 109400 -100000 M 108300 -104000 108300 -102400" fill="none" stroke-width="1000"/><path d="M 111032.5 -90400 109000 -90400" fill="none" stroke-width="500"/><path d="M 108400 -102300 108300 -102400" fill="none" stroke-width="1000"/><path d="M 108300 -112800 108200 -112700" fill="none" stroke-width="250"/><path d="M 112962.5 -110000 108400 -110000 108200 -110200 M 120075 -92900 109600 -92900" fill="none" stroke-width="1000"/><path d="M 120860 -85550 120860 -83160" fill="none" stroke-width="250"/><path d="M 108700 -86900 108600 -87000 M 108300 -104000 A 1000 1000 0 0 1 109300 -105000 M 109400 -100000 A 1000 1000 0 0 1 108400 -101000" fill="none" stroke-width="1000"/><path d="M 121350 -88950 121507.107 -89107.107 M 121350 -88450 121350 -88950 M 121800 -89814.214 121800 -92900 M 121799.99 -89814.214 A 999.9900001 999.9900001 0 0 1 121507.107 -89107.107" fill="none" stroke-width="250"/><path d="M 115700 -88500 115700 -90000" fill="none" stroke-width="1000"/><path d="M 122800 -83695.786 122800 -81900" fill="none" stroke-width="250"/><path d="M 115700 -90000 115300 -90400" fill="none" stroke-width="1000"/><path d="M 115300 -90400 112167.5 -90400" fill="none" stroke-width="500"/><path d="M 122800 -81900 122800 -81800 M 121360 -85550 122507.107 -84402.893 M 122507.114 -84402.9 A 1000.0003095 1000.0003095 0 0 1 122800 -83695.786" fill="none" stroke-width="250"/><path d="M 127800 -86365 127800 -82600 M 127800 -87500 127800 -89000 M 127800 -90900 128000 -91100" fill="none" stroke-width="500"/><path d="M 120600 -104000 120600 -102900 M 117992.893 -100292.893 120500 -102800 M 115037.5 -115000 119700 -115000" fill="none" stroke-width="1000"/><path d="M 120900 -89900 121000 -89900" fill="none" stroke-width="250"/><path d="M 115037.5 -110000 117485.786 -110000 M 120700 -114000 120700 -113000 M 120600 -102900 120500 -102800 M 127800 -94700 127800 -98700 M 115037.5 -100000 117285.786 -100000" fill="none" stroke-width="1000"/><path d="M 120850 -89750 120900 -89800" fill="none" stroke-width="250"/><path d="M 118192.893 -110292.893 120800 -112900 M 115037.5 -105000 119600 -105000 M 120700 -113000 120800 -112900" fill="none" stroke-width="1000"/><path d="M 121000 -89900 120900 -89800 120900 -89900 M 120850 -88450 120850 -89750" fill="none" stroke-width="250"/><path d="M 118192.9 -110292.886 A 1000.0003095 1000.0003095 0 0 1 117485.786 -110000 M 119600 -105000 A 1000 1000 0 0 1 120600 -104000 M 119700 -115000 A 1000 1000 0 0 1 120700 -114000 M 117992.9 -100292.886 A 1000.0003095 1000.0003095 0 0 1 117285.786 -100000 M 120650 -65450 120700 -65500 M 118100 -65450 120650 -65450 M 120700 -65500 120700 -76900" fill="none" stroke-width="1000"/><path d="M 120360 -85550 120360 -85151.992 M 118100 -76900 120700 -76900 M 119007.107 -80207.107 117900 -79100 M 117900 -77100 118100 -76900 M 119300 -83677.778 119300 -80914.214 M 117900 -79200 117900 -77100 M 120360 -85151.992 119592.893 -84384.885 M 119300.016 -83677.778 A 999.9840002 999.9840002 0 0 1 119592.894 -84384.884 M 119299.99 -80914.214 A 999.9900001 999.9900001 0 0 1 119007.107 -80207.107 M 118400 -90400 119850 -88950 119850 -88450 M 124900 -79600 125000 -79500" fill="none" stroke-width="250"/><path d="M 125000 -79500 127800 -79500 M 124900 -84900 124900 -79600" fill="none" stroke-width="1000"/></g></svg>